{"asset":{"version":"2.0","generator":"gltf-builder"},"scenes":[{"nodes":[0]}],"nodes":[{"mesh":0}],"meshes":[{"primitives":[{"indices":1,"attributes":{"POSITION":0}}]}],"accessors":[{"componentType":5126,"type":"VEC3","min":[-2,0,-2],"max":[2,10,2],"count":8,"bufferView":0},{"componentType":5123,"type":"SCALAR","min":[0],"max":[7],"count":24,"bufferView":1}],"bufferViews":[{"byteLength":96,"buffer":0},{"byteLength":48,"buffer":1}],"buffers":[{"uri":"data:application/octet-stream;base64,","byteLength":96},{"uri":"data:application/octet-stream;base64,","byteLength":48}]}