{"asset":{"version":"2.0","generator":"gltf-builder"},"scenes":[{"nodes":[0,1]}],"nodes":[{"mesh":0},{"mesh":1}],"meshes":[{"primitives":[{"indices":1,"attributes":{"POSITION":0}}]},{"primitives":[{"indices":3,"attributes":{"POSITION":2}}]}],"accessors":[{"componentType":5126,"type":"VEC3","min":[-0.5,-0.5,-0.5],"max":[0.5,0.5,0.5],"count":8,"bufferView":0},{"componentType":5123,"type":"SCALAR","min":[0],"max":[7],"count":36,"bufferView":1},{"componentType":5126,"type":"VEC3","min":[-2,0,-2],"max":[2,4,2],"count":24,"bufferView":2},{"componentType":5123,"type":"SCALAR","min":[0],"max":[23],"count":36,"bufferView":3}],"bufferViews":[{"byteLength":96,"buffer":0},{"byteLength":72,"buffer":1},{"byteLength":288,"buffer":2},{"byteLength":72,"buffer":3}],"buffers":[{"uri":"data:application/octet-stream;base64,","byteLength":96},{"uri":"data:application/octet-stream;base64,","byteLength":72},{"uri":"data:application/octet-stream;base64,","byteLength":288},{"uri":"data:application/octet-stream;base64,","byteLength":72}]}