{
  "accessors": [
    {
      "bufferView": 3,
      "componentType": 5126,
      "count": 7001,
      "max": [
        0.22832255065441132,
        3.1464385986328125,
        0.22363843023777008
      ],
      "min": [
        -0.5625055432319641,
        -0.5092521905899048,
        -0.10954104363918304
      ],
      "type": "VEC3"
    },
    {
      "bufferView": 3,
      "byteOffset": 84012,
      "componentType": 5126,
      "count": 7001,
      "max": [
        0.999997615814209,
        0.999998927116394,
        0.999998152256012
      ],
      "min": [
        -0.999997615814209,
        -0.9999479651451111,
        -0.9999998807907104
      ],
      "type": "VEC3"
    },
    {
      "bufferView": 4,
      "componentType": 5126,
      "count": 7001,
      "max": [
        0.9999999403953552,
        0.9999683499336243,
        1.0,
        1.0
      ],
      "min": [
        -0.9999995231628418,
        -0.99998939037323,
        -1.0,
        -1.0
      ],
      "type": "VEC4"
    },
    {
      "bufferView": 2,
      "componentType": 5126,
      "count": 7001,
      "max": [
        1.1872085332870483,
        1.3667595386505127
      ],
      "min": [
        -0.3192722797393799,
        -0.3704853057861328
      ],
      "type": "VEC2"
    },
    {
      "bufferView": 1,
      "componentType": 5125,
      "count": 27264,
      "type": "SCALAR"
    },
    {
      "bufferView": 5,
      "componentType": 5126,
      "count": 35,
      "max": [
        2.965991973876953,
        2.965991735458374,
        0.0019707409664988518,
        0.0,
        2.965991735458374,
        2.965991735458374,
        2.965991735458374,
        0.0,
        0.032235633581876755,
        2.9614882469177246,
        2.9659922122955322,
        0.0,
        7.38525390625,
        7.70008659362793,
        3.6472411155700684,
        1.0
      ],
      "min": [
        -2.965566396713257,
        -2.965991735458374,
        -2.965991735458374,
        0.0,
        -2.9658546447753906,
        -2.965991735458374,
        -2.965991735458374,
        0.0,
        -2.965991735458374,
        -0.11635053157806396,
        -0.9726226925849915,
        0.0,
        -2.599963665008545,
        -8.431501388549805,
        -7.265198230743408,
        1.0
      ],
      "type": "MAT4"
    },
    {
      "bufferView": 0,
      "componentType": 5123,
      "count": 7001,
      "type": "VEC4"
    },
    {
      "bufferView": 4,
      "byteOffset": 112016,
      "componentType": 5126,
      "count": 7001,
      "max": [
        1.0,
        0.49974486231803894,
        0.28021788597106934,
        0.22366923093795776
      ],
      "min": [
        0.27632659673690796,
        0.0,
        0.0,
        0.0
      ],
      "type": "VEC4"
    }
  ],
  "asset": {
    "extras": {
      "author": "🇧🇷 SamelCookies 🇧🇷 (https://sketchfab.com/ZamuelWarrior)",
      "license": "CC-BY-4.0 (http://creativecommons.org/licenses/by/4.0/)",
      "source": "https://sketchfab.com/3d-models/kitty-level-974-backrooms-5b3ada3e034f472cb4ec4624ab5d75a6",
      "title": "Kitty level 974 [Backrooms]"
    },
    "generator": "Sketchfab-14.15.0",
    "version": "2.0"
  },
  "bufferViews": [
    {
      "buffer": 0,
      "byteLength": 56008,
      "byteStride": 8,
      "name": "shortBufferViews",
      "target": 34962
    },
    {
      "buffer": 0,
      "byteLength": 109056,
      "byteOffset": 56008,
      "name": "floatBufferViews",
      "target": 34963
    },
    {
      "buffer": 0,
      "byteLength": 56008,
      "byteOffset": 165064,
      "byteStride": 8,
      "name": "floatBufferViews",
      "target": 34962
    },
    {
      "buffer": 0,
      "byteLength": 168024,
      "byteOffset": 221072,
      "byteStride": 12,
      "name": "floatBufferViews",
      "target": 34962
    },
    {
      "buffer": 0,
      "byteLength": 224032,
      "byteOffset": 389096,
      "byteStride": 16,
      "name": "floatBufferViews",
      "target": 34962
    },
    {
      "buffer": 0,
      "byteLength": 2240,
      "byteOffset": 613128,
      "name": "floatBufferViews"
    }
  ],
  "buffers": [
    {
      "byteLength": 615368,
      "uri": "scene.bin"
    }
  ],
  "images": [
    {
      "uri": "textures/kitty_skin.001_normal.jpeg"
    }
  ],
  "materials": [
    {
      "doubleSided": true,
      "name": "kitty_skin.001",
      "normalTexture": {
        "index": 0
      },
      "pbrMetallicRoughness": {
        "baseColorFactor": [
          0.0,
          0.0,
          0.0,
          1.0
        ],
        "metallicFactor": 0.0,
        "roughnessFactor": 0.595455
      }
    }
  ],
  "meshes": [
    {
      "name": "Object_0",
      "primitives": [
        {
          "attributes": {
            "JOINTS_0": 6,
            "NORMAL": 1,
            "POSITION": 0,
            "TANGENT": 2,
            "TEXCOORD_0": 3,
            "WEIGHTS_0": 7
          },
          "indices": 4,
          "material": 0,
          "mode": 4
        }
      ]
    }
  ],
  "nodes": [
    {
      "children": [
        1
      ],
      "matrix": [
        0.625,
        0.0,
        0.0,
        0.0,
        0.0,
        1.3877787807814457e-16,
        -0.625,
        0.0,
        0.0,
        0.625,
        1.3877787807814457e-16,
        0.0,
        0.0,
        0.0,
        0.0,
        1.0
      ],
      "name": "Sketchfab_model"
    },
    {
      "children": [
        2
      ],
      "name": "root"
    },
    {
      "children": [
        3
      ],
      "matrix": [
        1.0,
        0.0,
        0.0,
        0.0,
        0.0,
        2.220446049250313e-16,
        1.0,
        0.0,
        0.0,
        -1.0,
        2.220446049250313e-16,
        0.0,
        0.0,
        0.0,
        0.0,
        1.0
      ],
      "name": "GLTF_SceneRootNode"
    },
    {
      "children": [
        4
      ],
      "matrix": [
        0.3371553421020508,
        0.0,
        0.0,
        0.0,
        0.0,
        0.3371553421020508,
        0.0,
        0.0,
        0.0,
        0.0,
        0.3371553421020508,
        0.0,
        -0.16468024253845215,
        1.267505168914795,
        0.0,
        1.0
      ],
      "name": "Armature.001_38"
    },
    {
      "children": [
        5,
        7,
        6
      ],
      "name": "GLTF_created_0"
    },
    {
      "children": [
        8,
        17,
        38,
        39,
        40,
        41
      ],
      "name": "GLTF_created_0_rootJoint"
    },
    {
      "name": "Cube.001_37"
    },
    {
      "mesh": 0,
      "name": "Object_7",
      "skin": 0
    },
    {
      "children": [
        9,
        13
      ],
      "name": "Bone_11",
      "rotation": [
        0.7071068286895752,
        0.0,
        -0.7071068286895752,
        0.0
      ],
      "translation": [
        7.105427357601002e-15,
        1.0,
        0.06266195327043533
      ]
    },
    {
      "children": [
        10
      ],
      "name": "Bone.022_6",
      "rotation": [
        0.6178249716758728,
        5.916714229670106e-08,
        7.907298282816555e-08,
        0.7863156795501709
      ],
      "translation": [
        0.0,
        0.9999998807907104,
        0.0
      ]
    },
    {
      "children": [
        11
      ],
      "name": "Bone.023_5",
      "rotation": [
        -0.5742893218994141,
        0.02287258952856064,
        0.03237299248576164,
        0.8176922798156738
      ],
      "scale": [
        1.0000003576278687,
        1.000000238418579,
        1.000000238418579
      ],
      "translation": [
        2.533233178780847e-09,
        0.33695095777511597,
        -1.831706342159123e-08
      ]
    },
    {
      "children": [
        12
      ],
      "name": "Bone.024_4",
      "rotation": [
        -0.036076292395591736,
        0.0021054784301668406,
        -0.0181278008967638,
        0.999182403087616
      ],
      "scale": [
        0.9999998211860657,
        1.000000238418579,
        0.9999997615814209
      ],
      "translation": [
        3.855208419167866e-08,
        1.4041721820831299,
        4.30828039910125e-09
      ]
    },
    {
      "name": "Bone.025_3",
      "rotation": [
        -0.02699929103255272,
        7.262871804414317e-05,
        -0.03957805037498474,
        0.9988516569137573
      ],
      "scale": [
        1.0000003576278687,
        1.0000007152557373,
        1.0000004768371582
      ],
      "translation": [
        4.273545073374407e-09,
        2.047959804534912,
        1.3805800946897762e-08
      ]
    },
    {
      "children": [
        14
      ],
      "name": "Bone.026_10",
      "rotation": [
        -0.6532424688339233,
        -1.5691392629690881e-09,
        -6.178333933348767e-08,
        0.757148802280426
      ],
      "translation": [
        0.0,
        0.9999998807907104,
        0.0
      ]
    },
    {
      "children": [
        15
      ],
      "name": "Bone.027_9",
      "rotation": [
        0.6350306272506714,
        -0.02504931576550007,
        0.030422499403357506,
        0.7714811563491821
      ],
      "scale": [
        1.0,
        0.9999998211860657,
        1.0000001192092896
      ],
      "translation": [
        3.6196740049732057e-13,
        0.35605043172836304,
        -7.015580560931767e-09
      ]
    },
    {
      "children": [
        16
      ],
      "name": "Bone.028_8",
      "rotation": [
        0.010346007533371449,
        -0.0006392349023371935,
        -0.01781519316136837,
        0.9997875690460205
      ],
      "scale": [
        0.9999999403953552,
        1.0,
        0.9999997615814209
      ],
      "translation": [
        4.0655763200447836e-08,
        1.4122629165649414,
        -5.745631526110628e-08
      ]
    },
    {
      "name": "Bone.029_7",
      "rotation": [
        -0.000648236833512783,
        1.1527951755851973e-05,
        -0.03995504230260849,
        0.9992012977600098
      ],
      "scale": [
        0.999999463558197,
        0.9999998211860657,
        1.0000001192092896
      ],
      "translation": [
        -6.418734699309425e-08,
        2.0393991470336914,
        4.2169765457344965e-09
      ]
    },
    {
      "children": [
        18
      ],
      "name": "Bone.001_32",
      "translation": [
        0.0,
        1.0,
        0.06266195327043533
      ]
    },
    {
      "children": [
        19
      ],
      "name": "Bone.002_31",
      "translation": [
        0.0,
        1.1157889366149902,
        0.0
      ]
    },
    {
      "children": [
        20,
        22,
        30
      ],
      "name": "Bone.003_30",
      "translation": [
        0.0,
        1.3750126361846924,
        0.0
      ]
    },
    {
      "children": [
        21
      ],
      "name": "Bone.004_13",
      "rotation": [
        0.10133661329746246,
        -0.00023435874027200043,
        0.11333799362182617,
        0.9883751273155212
      ],
      "translation": [
        0.0,
        0.7438595294952393,
        0.0
      ]
    },
    {
      "name": "Bone.005_12",
      "rotation": [
        -0.0772521048784256,
        0.0006308930460363626,
        0.045710816979408264,
        0.9959629774093628
      ],
      "scale": [
        1.0,
        1.0000001192092896,
        1.0
      ],
      "translation": [
        -1.1920928955078125e-07,
        0.44514578580856323,
        4.6125620656312094e-08
      ]
    },
    {
      "children": [
        23
      ],
      "name": "Bone.006_21",
      "rotation": [
        5.046470619163301e-08,
        6.25674303478263e-08,
        -0.8154576420783997,
        0.5788167715072632
      ],
      "translation": [
        0.0,
        0.7438595294952393,
        0.0
      ]
    },
    {
      "children": [
        24
      ],
      "name": "Bone.007_20",
      "rotation": [
        0.08307531476020813,
        -0.05327170342206955,
        -0.5467771887779236,
        0.8314417600631714
      ],
      "scale": [
        1.0,
        1.0000001192092896,
        1.0000001192092896
      ],
      "translation": [
        -3.0960954688907805e-08,
        0.8539828062057495,
        -1.4986115681736578e-09
      ]
    },
    {
      "children": [
        25
      ],
      "name": "Bone.008_19",
      "rotation": [
        0.627430260181427,
        -0.016025781631469727,
        0.2109086811542511,
        0.749394416809082
      ],
      "scale": [
        0.9999997019767761,
        1.0,
        0.9999995231628418
      ],
      "translation": [
        1.6736859720367647e-07,
        1.8942331075668335,
        2.8980875477202517e-09
      ]
    },
    {
      "children": [
        26
      ],
      "name": "Bone.009_18",
      "rotation": [
        0.463337779045105,
        -0.017031993716955185,
        0.060779597610235214,
        0.8839309215545654
      ],
      "scale": [
        0.9999998211860657,
        1.0,
        0.9999997615814209
      ],
      "translation": [
        2.4543319909753336e-07,
        1.62656831741333,
        3.5692892197403125e-07
      ]
    },
    {
      "children": [
        27,
        28
      ],
      "name": "Bone.010_17",
      "rotation": [
        -0.03664048761129379,
        0.4398014545440674,
        0.15240788459777832,
        0.8843099474906921
      ],
      "scale": [
        1.0000001192092896,
        1.0000001192092896,
        1.0000001192092896
      ],
      "translation": [
        -1.528782718196453e-07,
        1.5973749160766602,
        -2.8709628452361358e-08
      ]
    },
    {
      "name": "Bone.011_14",
      "rotation": [
        -0.16613011062145233,
        -0.0911618247628212,
        -0.10705941170454025,
        0.9760269522666931
      ],
      "scale": [
        1.0000001192092896,
        1.000000238418579,
        1.0
      ],
      "translation": [
        -2.1668549265996262e-07,
        0.6335786581039429,
        -8.084879965508662e-08
      ]
    },
    {
      "children": [
        29
      ],
      "name": "Bone.012_16",
      "rotation": [
        0.6754557490348816,
        1.4884362542488816e-07,
        -9.4296819952433e-06,
        0.7374005317687988
      ],
      "scale": [
        1.0,
        1.0,
        0.9999999403953552
      ],
      "translation": [
        2.404457859483955e-07,
        0.6335790753364563,
        5.3611827866006934e-08
      ]
    },
    {
      "name": "Bone.013_15",
      "rotation": [
        -0.49251416325569153,
        -0.1177610456943512,
        -0.41295909881591797,
        0.7569854259490967
      ],
      "scale": [
        1.0000001192092896,
        1.0000001192092896,
        1.000000238418579
      ],
      "translation": [
        3.9472610069424263e-07,
        0.11134223639965057,
        6.196780333311835e-08
      ]
    },
    {
      "children": [
        31
      ],
      "name": "Bone.021_29",
      "rotation": [
        -0.6639624834060669,
        0.47235190868377686,
        0.47235193848609924,
        0.3360375761985779
      ],
      "scale": [
        1.0000001192092896,
        0.9999999403953552,
        0.9999998807907104
      ],
      "translation": [
        1.1261747090429708e-07,
        0.743859589099884,
        5.410577534099717e-15
      ]
    },
    {
      "children": [
        32
      ],
      "name": "Bone.014_28",
      "rotation": [
        -0.4474104642868042,
        -0.648148238658905,
        0.3698214590549469,
        0.4929095506668091
      ],
      "scale": [
        0.9999996423721313,
        0.9999989867210388,
        0.999999463558197
      ],
      "translation": [
        -6.36428225675445e-08,
        0.8592373728752136,
        -2.1627155888381822e-07
      ]
    },
    {
      "children": [
        33
      ],
      "name": "Bone.015_27",
      "rotation": [
        -0.03629451245069504,
        -0.0029412684962153435,
        -0.09470106661319733,
        0.994839608669281
      ],
      "scale": [
        0.9999997615814209,
        0.9999997615814209,
        1.0
      ],
      "translation": [
        -1.864352157099347e-07,
        1.894232153892517,
        1.869463339687627e-08
      ]
    },
    {
      "children": [
        34
      ],
      "name": "Bone.016_26",
      "rotation": [
        -0.10110443085432053,
        -0.0027096751146018505,
        0.019424214959144592,
        0.9946824908256531
      ],
      "scale": [
        1.0,
        0.9999996423721313,
        1.0
      ],
      "translation": [
        3.1560153956888826e-07,
        1.6265689134597778,
        -7.935637036382559e-09
      ]
    },
    {
      "children": [
        35,
        36
      ],
      "name": "Bone.017_25",
      "rotation": [
        0.03590879961848259,
        0.001628995407372713,
        -0.027072282508015633,
        0.998987078666687
      ],
      "scale": [
        1.0,
        1.0,
        1.0000001192092896
      ],
      "translation": [
        1.4425675942675298e-07,
        1.5973756313323975,
        5.771523703401726e-09
      ]
    },
    {
      "name": "Bone.018_22",
      "rotation": [
        0.017338061705231667,
        -0.0014087235322222114,
        0.11150875687599182,
        0.993611216545105
      ],
      "scale": [
        1.0,
        0.9999999403953552,
        1.0
      ],
      "translation": [
        -1.0654457582859322e-07,
        0.6335793733596802,
        5.17579890058073e-09
      ]
    },
    {
      "children": [
        37
      ],
      "name": "Bone.019_24",
      "rotation": [
        0.6737189292907715,
        0.051718540489673615,
        0.04840661957859993,
        0.7355846762657166
      ],
      "scale": [
        0.9999999403953552,
        1.0,
        1.0
      ],
      "translation": [
        -1.9809024820460763e-07,
        0.6335792541503906,
        -2.7287155646149586e-08
      ]
    },
    {
      "name": "Bone.020_23",
      "rotation": [
        -0.6815187335014343,
        0.10054340213537216,
        -0.037413306534290314,
        0.7238947153091431
      ],
      "scale": [
        1.0000001192092896,
        1.0000001192092896,
        1.0000001192092896
      ],
      "translation": [
        -4.781212226134812e-08,
        0.11134223639965057,
        2.776785379410285e-07
      ]
    },
    {
      "name": "Bone.030_33",
      "rotation": [
        -6.883939107638071e-08,
        6.883939107638071e-08,
        0.7071068286895752,
        0.7071068286895752
      ],
      "translation": [
        -1.3557521104812622,
        -1.0834132432937622,
        0.011288347654044628
      ]
    },
    {
      "name": "Bone.031_34",
      "rotation": [
        1.9432644648986752e-07,
        1.9563722730708832e-07,
        -0.7036992311477661,
        0.710498034954071
      ],
      "scale": [
        1.0,
        1.0000001192092896,
        1.0
      ],
      "translation": [
        1.540445327758789,
        3.6164541244506836,
        2.7719194889068604
      ]
    },
    {
      "name": "Bone.032_35",
      "rotation": [
        -0.5000000596046448,
        0.5000000596046448,
        0.4999999403953552,
        0.4999999403953552
      ],
      "translation": [
        -0.5165330171585083,
        -5.238886833190918,
        0.19960708916187286
      ]
    },
    {
      "name": "Bone.033_36",
      "rotation": [
        0.5000000596046448,
        0.5,
        -0.5,
        0.5
      ],
      "translation": [
        0.5152647495269775,
        -5.191781044006348,
        0.19960708916187286
      ]
    }
  ],
  "samplers": [
    {
      "magFilter": 9729,
      "minFilter": 9987,
      "wrapS": 10497,
      "wrapT": 10497
    }
  ],
  "scene": 0,
  "scenes": [
    {
      "name": "Sketchfab_Scene",
      "nodes": [
        0
      ]
    }
  ],
  "skins": [
    {
      "inverseBindMatrices": 5,
      "joints": [
        5,
        8,
        9,
        10,
        11,
        12,
        13,
        14,
        15,
        16,
        17,
        18,
        19,
        20,
        21,
        22,
        23,
        24,
        25,
        26,
        27,
        28,
        29,
        30,
        31,
        32,
        33,
        34,
        35,
        36,
        37,
        38,
        39,
        40,
        41
      ],
      "skeleton": 5
    }
  ],
  "textures": [
    {
      "sampler": 0,
      "source": 0
    }
  ]
}
